Coordinates
version=1
nRows=10
nColumns=22
inDegrees=yes

Units are S.I. units (second, meters, Newtons, ...)
If the header above contains a line with 'inDegrees', this indicates whether rotational values are in degrees (yes) or radians (no).

endheader
time	pelvis_tilt	pelvis_list	pelvis_rotation	pelvis_tx	pelvis_ty	pelvis_tz	hip_flexion_r	hip_adduction_r	hip_rotation_r	knee_angle_r	ankle_angle_r	subtalar_angle_r	hip_flexion_l	hip_adduction_l	hip_rotation_l	knee_angle_l	ankle_angle_l	subtalar_angle_l	lumbar_extension	lumbar_bending	lumbar_rotation
      0.01000000	      2.55618331	     -2.64555949	      1.24625722	      0.98520295	      0.93239884	     -0.06372219	      6.62101791	      3.18370309	    -12.23816227	    -22.28472868	     11.69279472	     -1.87202486	     10.62721089	     -4.93422040	     -4.83720044	    -30.08338507	     13.27366605	     -2.81895131	    -12.55926342	      0.47353104	     -5.02506774
      0.02000000	      2.65822134	     -2.78900032	      1.31344834	      0.98408439	      0.93233236	     -0.06293107	      6.55624579	      3.39788775	    -12.32930453	    -22.21858352	     11.63426448	     -1.93936776	     10.90770628	     -5.15676591	     -4.67534855	    -30.60746603	     13.16379095	     -2.87661336	    -12.77569945	      0.65381570	     -4.93216156
      0.03000000	      2.74965352	     -2.94394992	      1.38430178	      0.98269706	      0.93221751	     -0.06200057	      6.52563515	      3.62939894	    -12.43737138	    -22.15974483	     11.54889047	     -2.02173302	     11.28683692	     -5.40454082	     -4.49916028	    -31.24361334	     13.04026310	     -2.88047307	    -13.00711729	      0.84567988	     -4.79473004
      0.04000000	      2.84490642	     -3.12641251	      1.47226143	      0.98108652	      0.93210347	     -0.06100594	      6.49215536	      3.89514983	    -12.56492516	    -22.07164518	     11.43671918	     -2.10562588	     11.75029949	     -5.69164747	     -4.30673736	    -31.99309191	     12.85905833	     -2.85100918	    -13.26808027	      1.07803871	     -4.63862563
      0.05000000	      2.94425188	     -3.33118574	      1.57702519	      0.97928317	      0.93200152	     -0.05997146	      6.45456212	      4.18845181	    -12.71248866	    -21.95466320	     11.29796404	     -2.18477551	     12.29047482	     -6.01242223	     -4.10753513	    -32.84275953	     12.61406249	     -2.79111122	    -13.55928755	      1.34184948	     -4.45337111
      0.06000000	      3.04379735	     -3.55565085	      1.69612722	      0.97732309	      0.93191710	     -0.05892899	      6.41252216	      4.50426243	    -12.87904081	    -21.80416365	     11.13192658	     -2.25679388	     12.90633925	     -6.36305249	     -3.90722463	    -33.78493977	     12.29880542	     -2.69719498	    -13.87422585	      1.63486902	     -4.23826137
      0.07000000	      3.14503274	     -3.79105108	      1.82783108	      0.97522805	      0.93185213	     -0.05790517	      6.36329444	      4.83201062	    -13.06081008	    -21.62095298	     10.94530611	     -2.32034927	     13.59265026	     -6.73215290	     -3.70704706	    -34.81301767	     11.90326729	     -2.57175109	    -14.21394917	      1.94879293	     -3.99475962
      0.08000000	      3.22069027	     -4.03448898	      1.96960491	      0.97302172	      0.93174100	     -0.05690852	      6.34397666	      5.16010213	    -13.29742174	    -21.42350059	     10.75154281	     -2.39246187	     14.37947988	     -7.11709980	     -3.50765372	    -35.92882559	     11.44407300	     -2.34557304	    -14.54282277	      2.27737704	     -3.69904374
      0.09000000	      3.33375622	     -4.27152102	      2.12903793	      0.97069757	      0.93170435	     -0.05594539	      6.26769673	      5.49361710	    -13.49424242	    -21.17640730	     10.54094482	     -2.44812405	     15.18566160	     -7.49754482	     -3.29069864	    -37.10297288	     10.86119195	     -2.18846365	    -14.94238572	      2.60823366	     -3.41571183
      0.10000000	      3.43114819	     -4.50687345	      2.29981915	      0.96829003	      0.93161337	     -0.05504121	      6.21254413	      5.81650349	    -13.74021764	    -20.92450244	     10.33602389	     -2.51540075	     16.07268060	     -7.87756391	     -3.06036150	    -38.34872110	     10.22121138	     -1.96476489	    -15.33842721	      2.94709181	     -3.09143561
